<svg xmlns="http://www.w3.org/2000/svg" viewBox="0 0 64 64" width="64" height="64">
  <!-- Shield body -->
  <defs>
    <linearGradient id="shieldGrad" x1="0" y1="0" x2="0" y2="1">
      <stop offset="0%" stop-color="#1e3a5f"/>
      <stop offset="100%" stop-color="#0d1f33"/>
    </linearGradient>
    <linearGradient id="shieldRim" x1="0" y1="0" x2="0" y2="1">
      <stop offset="0%" stop-color="#4a90d9"/>
      <stop offset="100%" stop-color="#1e3a5f"/>
    </linearGradient>
  </defs>
  <!-- Shield outline -->
  <path d="M32 4 L56 14 L56 34 Q56 52 32 60 Q8 52 8 34 L8 14 Z" fill="url(#shieldRim)" />
  <path d="M32 7 L53 16 L53 34 Q53 50 32 57 Q11 50 11 34 L11 16 Z" fill="url(#shieldGrad)" />
  <!-- Hardhat -->
  <ellipse cx="32" cy="16" rx="10" ry="4" fill="#ffcc00"/>
  <path d="M22 16 Q22 10 32 8 Q42 10 42 16" fill="#ffcc00"/>
  <circle cx="32" cy="12" r="2" fill="#333"/>
  <!-- Map/GIS zone -->
  <rect x="16" y="28" width="12" height="10" rx="1" fill="#e65c00" opacity="0.85"/>
  <rect x="30" y="26" width="10" height="12" rx="1" fill="#66cc44" opacity="0.8"/>
  <rect x="20" y="22" width="8" height="8" rx="1" fill="#4a90d9" opacity="0.7"/>
  <!-- Pin -->
  <circle cx="40" cy="30" r="4" fill="#e52e2e"/>
  <circle cx="40" cy="30" r="1.5" fill="#fff"/>
  <path d="M40 34 L40 38" stroke="#e52e2e" stroke-width="1.5" stroke-linecap="round"/>
</svg>